<svg version="1.0" xmlns="http://www.w3.org/2000/svg" width="200" height="200" viewBox="0 0 1000 1000"><path d="M94.9.5c-.3.3-4.3 1.2-9 2C63.6 6.6 47.2 15.2 31.3 31c-8.5 8.4-14.8 17.2-20 27.5-4.1 8.1-6.1 14.7-8.6 27.4L.6 96.5V500c0 321 .3 404.7 1.3 409.5 3.5 16.7 4.6 20.6 8.1 28.2 14.1 30.3 40.2 51.4 71.3 57.7 6.2 1.3 62.5 1.5 417.7 1.7 283.2.1 412.2-.2 416.1-.9 21.7-4.1 43.3-16.5 57.2-32.8 12.6-14.8 20.6-31.4 23.7-48.8.7-4.1 1-135 1-415.5 0-395.5-.1-409.9-1.9-418.6-1-5-3.3-12.4-5-16.6-3.4-8.2-12.2-22-17.6-27.8-1.9-2-3.5-3.9-3.5-4.2 0-1.2-14.8-13-20.5-16.4-7.7-4.7-21.9-10.2-32.9-12.8L906.5.5 500.9.3C277.9.1 95.1.2 94.9.5zM876.8 142c.5 33.7-3.5 73-12.7 124-1.7 9.1-4.3 21-8.7 39-15.7 64.3-44 135-76.4 190.5-2.9 4.9-6.7 11.5-8.5 14.5-5.3 9.2-16.5 27.2-20.1 32.2-10.1 14.2-12.4 17.9-12.4 20 0 1.7 17.3 19.6 69.7 71.8l69.8 69.5v84.6c0 70.2-.2 84.9-1.4 86.2-1.2 1.6-8.4 1.7-85.1 1.7h-83.8l-2.9-2.4c-1.5-1.3-33.2-32.8-70.3-70-44.9-45-68.1-67.6-69.5-67.6-1.1 0-4.7 1.9-8 4.2-7 5-34.9 23.4-39.7 26.3-1.8 1.1-4.9 2.9-6.8 4-1.9 1.1-5.1 3-7 4.1-1.9 1.2-5.7 3.4-8.5 4.9C448.8 805 405 824.5 359 840c-28.5 9.6-67.2 19.9-90 24-3.6.6-8.3 1.5-10.5 2-7.5 1.7-30.2 5-54.5 7.9-25.5 3.1-79.7 4.8-82 2.5-.7-.7-.9-35.5-.8-113.5l.3-112.4 10-.7c26.4-1.8 39.7-2.9 47.2-3.8 4.6-.6 11.8-1.4 16-1.9 19.4-2.4 43.4-7.2 64.8-13 4.4-1.3 10.5-2.9 13.5-3.7 17.9-4.8 63.4-22.9 83.4-33.1 13-6.7 36-19.5 43.1-24.1 10.4-6.7 27.6-18.2 30.5-20.4 1.4-1 5.7-4.2 9.5-7 3.9-2.8 7.2-5.4 7.5-5.7.3-.4 3.7-3.1 7.5-6.2 47.5-37.9 93.4-91.4 124-144.4 10.2-17.7 24.6-46.8 32.6-66 9.1-21.8 20.6-58.8 26-83.3 2.2-10.2 2.8-13.1 3.9-19.7.6-3.9 1.5-9.3 2-12 3.1-17.1 7-58.6 7-73.7 0-5.2.3-9.8.7-10.1.3-.4 51.3-.6 113.2-.5l112.6.3.3 20.5z"/></svg>